<?xml version="1.0" ?><svg id="Layer_1" style="enable-background:new 0 0 234.488 237.183;" version="1.1" viewBox="0 0 234.488 237.183" xml:space="preserve" xmlns="http://www.w3.org/2000/svg" xmlns:xlink="http://www.w3.org/1999/xlink"><g><path d="M144.154,62.043v1.5c0,4.418,3.582,8,8,8c4.416,0,7.998-3.582,7.998-8V60.71c0-0.631-0.08-1.243-0.219-1.832   c0.002,0,0.004,0,0.006,0c0-0.001,0-0.003,0-0.005c-0.016-0.068-0.041-0.133-0.059-0.2c-0.043-0.164-0.088-0.328-0.141-0.488   c-0.035-0.102-0.072-0.2-0.111-0.3c-0.053-0.143-0.107-0.284-0.17-0.423c-0.051-0.116-0.107-0.228-0.164-0.34   c-0.057-0.114-0.115-0.229-0.178-0.34c-0.072-0.126-0.146-0.247-0.225-0.368c-0.059-0.093-0.119-0.186-0.182-0.277   c-0.088-0.125-0.18-0.245-0.273-0.364c-0.064-0.083-0.129-0.165-0.197-0.244c-0.098-0.115-0.199-0.226-0.303-0.334   c-0.076-0.079-0.15-0.156-0.229-0.231c-0.101-0.099-0.207-0.194-0.316-0.287c-0.09-0.078-0.18-0.155-0.271-0.229   c-0.104-0.081-0.207-0.158-0.313-0.233c-0.107-0.077-0.215-0.152-0.326-0.224c-0.1-0.064-0.199-0.124-0.301-0.184   c-0.123-0.072-0.248-0.142-0.375-0.207c-0.099-0.051-0.199-0.098-0.301-0.145c-0.133-0.061-0.265-0.121-0.4-0.174   c-0.107-0.043-0.216-0.081-0.325-0.119c-0.132-0.046-0.265-0.09-0.399-0.129c-0.123-0.036-0.248-0.066-0.373-0.096   c-0.123-0.029-0.246-0.059-0.372-0.082c-0.146-0.027-0.292-0.048-0.44-0.067c-0.109-0.014-0.219-0.029-0.33-0.039   c-0.162-0.015-0.324-0.021-0.488-0.025c-0.074-0.002-0.146-0.011-0.223-0.011c-0.033,0-0.064,0.004-0.098,0.005   c-0.148,0.002-0.297,0.012-0.445,0.022c-0.131,0.009-0.262,0.017-0.39,0.031c-0.11,0.014-0.222,0.033-0.333,0.051   c-0.166,0.026-0.33,0.054-0.492,0.09c-0.026,0.006-0.053,0.008-0.08,0.015c-8.168,1.93-16.69,2.656-24.707,2.654   c-0.453,0-0.902-0.005-1.352-0.009v6.473H144.154z"/><circle cx="65.168" cy="22.5" r="22.5"/><path d="M203.432,83.438h-57.334v-5.393h-6.666v5.393h-10.195v67.772h96.805V83.438h-15.943v-5.393h-6.666V83.438z M222.041,147.21   h-88.805V87.439h88.805V147.21z"/><polygon points="163.193,106.465 167.742,106.465 167.742,104.095 163.193,104.095 163.193,102.045 168.518,102.045    168.518,99.523 159.551,99.523 159.551,111.262 163.193,111.262  "/><path d="M172.934,110.829c0.867,0.422,1.963,0.633,3.287,0.633c1.303,0,2.391-0.244,3.264-0.732   c0.873-0.488,1.539-1.173,2.002-2.051c0.461-0.878,0.693-2.003,0.693-3.375c0-1.89-0.529-3.359-1.586-4.408   c-1.059-1.048-2.563-1.573-4.516-1.573c-1.906,0-3.393,0.534-4.461,1.602c-1.067,1.068-1.602,2.56-1.602,4.476   c0,1.372,0.27,2.514,0.809,3.427C171.363,109.74,172.066,110.407,172.934,110.829z M174.309,102.846   c0.441-0.518,1.029-0.777,1.76-0.777c0.764,0,1.369,0.255,1.814,0.765c0.445,0.51,0.668,1.317,0.668,2.422   c0,1.313-0.213,2.223-0.641,2.73c-0.426,0.507-1.029,0.761-1.809,0.761c-0.758,0-1.357-0.26-1.797-0.776   c-0.442-0.518-0.662-1.369-0.662-2.555C173.643,104.221,173.865,103.363,174.309,102.846z"/><path d="M187.824,106.497h0.32c0.33,0,0.627,0.091,0.889,0.272c0.191,0.139,0.41,0.44,0.656,0.905l1.939,3.587h4.098l-1.756-3.401   c-0.086-0.171-0.256-0.414-0.51-0.729c-0.252-0.315-0.445-0.521-0.58-0.617c-0.197-0.145-0.512-0.288-0.943-0.433   c0.539-0.123,0.965-0.277,1.273-0.464c0.486-0.294,0.869-0.677,1.147-1.148c0.277-0.473,0.416-1.035,0.416-1.686   c0-0.747-0.182-1.381-0.545-1.901c-0.361-0.521-0.84-0.877-1.432-1.069c-0.594-0.192-1.451-0.288-2.572-0.288h-6.045v11.738h3.644   V106.497z M187.824,101.893h1.592c0.662,0,1.113,0.102,1.354,0.304c0.24,0.203,0.361,0.494,0.361,0.873   c0,0.256-0.076,0.482-0.229,0.68c-0.152,0.198-0.348,0.321-0.588,0.369c-0.477,0.107-0.797,0.16-0.961,0.16h-1.529V101.893z"/><path d="M234.488,76.043v-12l-72.359,0c-0.264,5.281-4.631,9.499-9.977,9.499c-5.342,0-9.709-4.219-9.973-9.499h-19.924v-9.996h-12   v9.996H99.26v12h10.996v2.001v155.999h12V78.045v-2.001H234.488z"/><path d="M21.31,163.147l16.812-11.388v73.06c0,6.83,5.537,12.363,12.363,12.363c6.828,0,12.365-5.533,12.365-12.363v-90.271h4.635   v90.271c0,6.83,5.535,12.363,12.361,12.363c6.828,0,12.365-5.533,12.365-12.363V68.195c1.506,0.302,3.195,0.618,5.047,0.931v-5.082   v-2h2.002h8.994v-7.507c-3.348-0.391-6.404-0.851-9.054-1.312c-3.386-0.588-6.118-1.177-7.978-1.609   c-0.928-0.218-1.64-0.395-2.104-0.516c-0.234-0.06-0.405-0.105-0.513-0.134c-0.107-0.029-0.123-0.033-0.123-0.033   c-1.133-0.318-2.275-0.369-3.367-0.202c-0.209-0.018-0.418-0.032-0.633-0.032H47.139c-0.006-0.001-0.012-0.002-0.018-0.003   c-0.3-0.037-0.777-0.079-1.412-0.079c-2.844-0.08-9.385,1.104-15.2,7.186c-5.09,5.274-9.515,13.595-12.302,26.893   c-0.404,1.933-0.775,3.969-1.109,6.118c0,0.005-0.002,0.01-0.002,0.015v-0.002c-1.223,7.919-1.936,17.393-1.936,28.814   c0,5.854,0.188,12.224,0.594,19.159c0.25,4.25,3.775,7.531,7.98,7.531c0.158,0,0.316-0.004,0.475-0.014   c4.41-0.258,7.775-4.045,7.518-8.455c-0.393-6.651-0.568-12.709-0.566-18.222c-0.002-10.738,0.672-19.408,1.742-26.342   c0.002-0.01,0.005-0.02,0.006-0.031c0.314-2.043,0.665-3.917,1.039-5.662c1.217-5.677,2.704-9.834,4.176-12.85v31.109l-4.724,3.2   c-0.058,1.217-0.104,2.459-0.141,3.719l4.44-3.008l17.943,26.494L22.113,158.98L4.168,132.485l9.08-6.15   c-0.027-1.208-0.049-2.402-0.06-3.583L0,131.685L21.31,163.147z M65.168,123.382l-9.5-12l5.473-40.321   c1.297,0.486,2.661,0.74,4.025,0.739h0.002c0,0,0.004,0,0.006,0c1.363,0,2.727-0.254,4.021-0.74l5.471,40.322L65.168,123.382z    M61.367,58.882h3.801h3.799l1.9,7.5l-0.289,0.456c-1.565,1.306-3.483,1.96-5.412,1.962c-1.928-0.002-3.842-0.655-5.407-1.957   l-0.292-0.461L61.367,58.882z"/><rect height="19.211" transform="matrix(0.8195 -0.5731 0.5731 0.8195 -66.0137 46.0881)" width="1.999" x="39.155" y="118.23"/><path d="M39.475,139.888l-6.068-8.689c0.049,1.233,0.105,2.479,0.17,3.738l4.258,6.096L39.475,139.888z"/><path d="M147.236,126.932h0.473c0.49,0,0.928,0.134,1.315,0.402c0.285,0.206,0.607,0.651,0.971,1.338l2.867,5.304h6.061   l-2.598-5.029c-0.125-0.252-0.377-0.611-0.752-1.077c-0.375-0.467-0.66-0.77-0.857-0.913c-0.293-0.213-0.758-0.427-1.395-0.641   c0.797-0.182,1.424-0.41,1.881-0.686c0.719-0.435,1.285-1.001,1.695-1.699c0.41-0.699,0.615-1.529,0.615-2.492   c0-1.105-0.268-2.043-0.805-2.813c-0.537-0.77-1.242-1.296-2.119-1.58c-0.875-0.284-2.143-0.426-3.801-0.426h-8.938v17.356h5.387   V126.932z M147.236,120.124h2.355c0.979,0,1.646,0.15,2.002,0.449c0.354,0.301,0.531,0.73,0.531,1.291   c0,0.379-0.111,0.715-0.336,1.006c-0.227,0.293-0.516,0.475-0.871,0.545c-0.703,0.158-1.176,0.237-1.42,0.237h-2.262V120.124z"/><polygon points="166.002,126.624 174.348,126.624 174.348,123.084 166.002,123.084 166.002,120.325 174.998,120.325    174.998,116.62 160.627,116.62 160.627,133.976 175.26,133.976 175.26,130.046 166.002,130.046  "/><polygon points="178.184,133.976 183.227,133.976 183.227,124.446 189.727,133.976 194.783,133.976 194.783,116.62 189.727,116.62    189.727,126.222 183.191,116.62 178.184,116.62  "/><polygon points="202.596,133.976 207.959,133.976 207.959,120.905 213.43,120.905 213.43,116.62 197.127,116.62 197.127,120.905    202.596,120.905  "/></g></svg>