<?xml version="1.0" encoding="UTF-8" standalone="no"?>
<svg
   xmlns:dc="http://purl.org/dc/elements/1.1/"
   xmlns:cc="http://creativecommons.org/ns#"
   xmlns:rdf="http://www.w3.org/1999/02/22-rdf-syntax-ns#"
   xmlns:svg="http://www.w3.org/2000/svg"
   xmlns="http://www.w3.org/2000/svg"
   xmlns:sodipodi="http://sodipodi.sourceforge.net/DTD/sodipodi-0.dtd"
   xmlns:inkscape="http://www.inkscape.org/namespaces/inkscape"
   aria-hidden="true"
   data-prefix="fas"
   data-icon="ticket-alt"
   class="svg-inline--fa fa-ticket-alt fa-w-18"
   role="img"
   viewBox="0 0 576 512"
   version="1.1"
   id="svg4"
   sodipodi:docname="icon.svg"
   inkscape:version="0.92.3 (2405546, 2018-03-11)"
   inkscape:export-filename="/home/ignacio/Proyectos/erp/SAAS/ocb-11.0-test1/clients/larp/website_event_sale_limit_register/static/description/icon.png"
   inkscape:export-xdpi="90"
   inkscape:export-ydpi="90">
  <metadata
     id="metadata10">
    <rdf:RDF>
      <cc:Work
         rdf:about="">
        <dc:format>image/svg+xml</dc:format>
        <dc:type
           rdf:resource="http://purl.org/dc/dcmitype/StillImage" />
        <dc:title />
      </cc:Work>
    </rdf:RDF>
  </metadata>
  <defs
     id="defs8" />
  <sodipodi:namedview
     pagecolor="#ffffff"
     bordercolor="#666666"
     borderopacity="1"
     objecttolerance="10"
     gridtolerance="10"
     guidetolerance="10"
     inkscape:pageopacity="0"
     inkscape:pageshadow="2"
     inkscape:window-width="1920"
     inkscape:window-height="999"
     id="namedview6"
     showgrid="false"
     inkscape:zoom="1"
     inkscape:cx="191.12961"
     inkscape:cy="256"
     inkscape:window-x="0"
     inkscape:window-y="0"
     inkscape:window-maximized="1"
     inkscape:current-layer="svg4" />
  <path
     d="M 128,100 H 448 V 292 H 128 Z m 400,96 c 0,26.51 21.49,48 48,48 v 96 c 0,26.51 -21.49,48 -48,48 H 48 C 21.49,388 0,366.51 0,340 V 244 C 26.51,244 48,222.51 48,196 48,169.49 26.51,148 0,148 V 52 C 0,25.49 21.49,4 48,4 h 480 c 26.51,0 48,21.49 48,48 v 96 c -26.51,0 -48,21.49 -48,48 z M 480,92 C 480,78.745 469.255,68 456,68 H 120 C 106.745,68 96,78.745 96,92 v 208 c 0,13.255 10.745,24 24,24 h 336 c 13.255,0 24,-10.745 24,-24 z"
     id="path2"
     inkscape:connector-curvature="0"
     style="fill:currentColor" />
  <text
     xml:space="preserve"
     style="font-style:normal;font-variant:normal;font-weight:normal;font-stretch:normal;font-size:26.66666603px;line-height:0%;font-family:'Futura Hv BT';-inkscape-font-specification:'Futura Hv BT';letter-spacing:0px;word-spacing:0px;fill:#000000;fill-opacity:1;stroke:none;stroke-width:1px;stroke-linecap:butt;stroke-linejoin:miter;stroke-opacity:1"
     x="49.694923"
     y="482.06781"
     id="text819"
     inkscape:export-xdpi="90"
     inkscape:export-ydpi="90"><tspan
       sodipodi:role="line"
       id="tspan817"
       x="49.694923"
       y="482.06781"
       style="font-size:96px">Limit ticket</tspan></text>
</svg>
